PathFileType	4	(X/Y/Z)	E:\Qualisys_Data\Carbon_Farble_Plate\Data\Amateur_Runner\S2\T1\S2T1V21_c3d.trc
DataRate	CameraRate	NumFrames	NumMarkers	Units	OrigDataRate	OrigDataStartFrame	OrigNumFrames
200.000000	200.000000	4	39	mm	200.000000	275	315
Frame#	Time	LSHO			RSHO			LICST			RICST			LASIS			LHEEL			RASIS			LTROC			RTROC			SACR			LTH1			LSK4			LTH2			LTH3			RHM5			LSK2			LTH4			RTH1			LTOE			RTH2			RTH3			RTH4			LLEP			RLEP			LSK1			LSK3			RSK1			LHM5			RSK2			LFT1			RSK3			RSK4			LLME			RLME			RTOE			RHEEL			RFT1			RFT2			LFT2			
		X1	Y1	Z1	X2	Y2	Z2	X3	Y3	Z3	X4	Y4	Z4	X5	Y5	Z5	X6	Y6	Z6	X7	Y7	Z7	X8	Y8	Z8	X9	Y9	Z9	X10	Y10	Z10	X11	Y11	Z11	X12	Y12	Z12	X13	Y13	Z13	X14	Y14	Z14	X15	Y15	Z15	X16	Y16	Z16	X17	Y17	Z17	X18	Y18	Z18	X19	Y19	Z19	X20	Y20	Z20	X21	Y21	Z21	X22	Y22	Z22	X23	Y23	Z23	X24	Y24	Z24	X25	Y25	Z25	X26	Y26	Z26	X27	Y27	Z27	X28	Y28	Z28	X29	Y29	Z29	X30	Y30	Z30	X31	Y31	Z31	X32	Y32	Z32	X33	Y33	Z33	X34	Y34	Z34	X35	Y35	Z35	X36	Y36	Z36	X37	Y37	Z37	X38	Y38	Z38	X39	Y39	Z39	

276	1.375	2390.9755859375	1470.157348632812	-438.5724792480469	2343.349365234375	1462.862548828125	-148.2031860351562	2338.5791015625	994.1197509765624	-422.6427917480469	2342.478515625	1009.772216796875	-123.4110946655273	2388.709228515625	942.4359741210938	-406.5097351074219	1883.482421875	235.6427764892578	-309.447509765625	2401.262939453125	962.7361450195312	-150.9052581787109	2242.727294921875	886.2476196289062	-413.6080627441406	2280.810302734375	909.6007690429688	-97.87244415283205	2246.74560546875	1040.805053710938	-280.1794128417969	2292.425048828125	630.9842529296875	-417.8440246582031	2005.818969726562	360.8487548828125	-394.4947204589844	2212.62548828125	657.371337890625	-422.8852844238281	2258.433837890625	535.720703125	-394.3578491210938	2414.930419921875	185.5174560546875	-119.1622848510742	2068.468994140625	437.1934814453125	-410.1345520019531	2178.6103515625	565.5759887695312	-396.629150390625	2546.664306640625	741.3028564453125	-106.5867080688477	2013.466430664062	48.31002807617188	-297.2967224121094	2481.987548828125	700.3322143554688	-93.91525268554688	2598.854248046875	654.8525390625	-120.3604507446289	2528.57666015625	614.830322265625	-111.0392913818359	2193.529052734375	508.81884765625	-397.7315368652344	2565.133056640625	596.6448974609375	-112.3085479736328	2130.032470703125	387.3657836914062	-403.3541870117188	2066.586181640625	310.1540222167969	-392.4750366210938	2540.57861328125	478.7098693847656	-115.1201095581055	1964.836547851562	61.16503143310547	-364.4704284667969	2479.2998046875	530.1595458984375	-101.9913787841797	1871.480346679688	215.7315673828125	-276.3380126953125	2473.34423828125	401.9088134765625	-127.5487289428711	2415.08837890625	455.2031555175781	-115.6151580810547	1928.285522460938	190.1553955078125	-362.4067687988281	2325.745849609375	286.4952392578125	-152.4022979736328	2476.875	178.7400054931641	-178.4058227539062	2266.095458984375	301.1637878417969	-209.8034515380859	2269.34033203125	270.0017700195312	-241.8999633789062	2252.342529296875	277.3775634765625	-186.906982421875	1859.5830078125	213.676513671875	-330.2041625976562
277	1.38	2412.6513671875	1474.344482421875	-437.3960876464844	2362.958984375	1466.711059570312	-147.9317474365234	2361.791259765625	998.2999877929688	-422.0996398925781	2363.764892578125	1013.758361816406	-123.6434555053711	2410.8974609375	946.1185913085938	-406.0772399902344	1900.255249023438	246.5335083007812	-314.0421447753906	2422.90283203125	966.4614868164062	-150.8529815673828	2264.21923828125	891.783447265625	-414.1091613769531	2302.511962890625	914.0148315429688	-97.92699432373048	2268.701416015625	1044.956909179688	-280.9826049804688	2307.433837890625	636.7340087890625	-417.6448364257812	2019.384155273438	368.470947265625	-396.142578125	2228.84375	664.617431640625	-423.3721008300781	2272.10107421875	541.9949951171875	-395.0377807617188	2453.928466796875	182.2508087158203	-115.6263885498047	2081.421142578125	445.3916931152344	-410.9748229980469	2193.001953125	573.6722412109375	-397.1040344238281	2568.368896484375	744.7999267578125	-106.2544631958008	2018.442749023438	47.95909118652344	-298.9730529785156	2503.318603515625	704.103515625	-93.67757415771484	2620.027587890625	658.281494140625	-119.7767333984375	2549.14794921875	618.6737670898438	-110.5039825439453	2206.586181640625	516.1809692382812	-397.9129028320312	2585.92578125	599.7357788085938	-111.7705841064453	2142.97509765625	396.0816345214844	-403.7214050292969	2079.706787109375	317.7757568359375	-394.8690490722656	2565.266845703125	480.3875122070312	-113.1789093017578	1971.271850585938	63.67127227783203	-366.6077270507812	2501.85693359375	529.27685546875	-102.3972625732422	1887.32080078125	227.7815856933594	-280.5736999511719	2502.072265625	401.3111572265625	-125.6188812255859	2441.323486328125	451.782958984375	-116.0628662109375	1942.359375	198.0062713623047	-366.3136596679688	2360.2294921875	278.2215270996094	-151.5851745605469	2516.98876953125	177.4047698974609	-173.7262725830078	2301.103759765625	289.0677185058594	-210.3510131835938	2306.979736328125	257.6546020507812	-242.2226257324219	2288.192626953125	264.4700927734375	-188.4926910400391	1875.198120117188	225.6995391845703	-334.4744567871094
278	1.385	2433.04541015625	1477.79638671875	-436.2368774414062	2382.850830078125	1470.75048828125	-147.5276641845703	2384.484130859375	1001.664367675781	-421.6462097167969	2385.598388671875	1017.457214355469	-123.9193954467773	2433.495361328125	949.9192504882812	-405.70361328125	1917.833740234375	257.1026916503906	-317.9764709472656	2444.08349609375	969.5670776367188	-150.9304504394531	2285.614501953125	897.0018920898438	-414.7772521972656	2323.78369140625	917.9088745117188	-98.43497467041016	2290.427734375	1049.113037109375	-281.0962829589844	2321.75537109375	642.0226440429688	-418.0787963867188	2032.876220703125	376.1119079589844	-398.1126098632812	2245.134765625	671.655029296875	-423.9309692382812	2285.830322265625	547.8703002929688	-395.5900268554688	2492.423583984375	179.1042633056641	-111.9274444580078	2095.36865234375	453.0494689941406	-411.8058471679688	2207.516357421875	581.1304931640625	-396.9342651367188	2589.71923828125	748.27734375	-106.2321243286133	2023.845703125	47.78457641601562	-301.2776489257812	2523.954833984375	706.952880859375	-93.6698760986328	2640.799072265625	661.1261596679688	-119.0449829101562	2570.283935546875	621.626220703125	-110.5785827636719	2220.633056640625	523.4525756835938	-398.7654418945312	2606.452880859375	602.5904541015625	-110.5697708129883	2157.074462890625	403.3676452636719	-405.1780395507812	2094.0556640625	325.4303588867188	-397.0162658691406	2589.59814453125	482.1549987792969	-111.5485763549805	1977.587768554688	66.56562042236328	-368.1873168945312	2524.0390625	528.2085571289062	-102.9725112915039	1903.44189453125	239.7732391357422	-284.2319946289062	2530.563720703125	399.499755859375	-124.0167694091797	2467.2763671875	447.7230224609375	-116.7137603759766	1956.637939453125	204.8795776367188	-369.4046325683594	2394.974609375	269.7301635742188	-151.2730712890625	2556.9833984375	176.6842803955078	-168.9760894775391	2336.37646484375	276.6263122558594	-211.5343170166016	2344.242919921875	245.591064453125	-242.3805847167969	2324.180419921875	252.2386627197266	-188.4723968505859	1891.181640625	237.9506683349609	-338.3824462890625
279	1.39	2453.975341796875	1481.1923828125	-434.7144470214844	2402.403564453125	1474.035888671875	-146.7960205078125	2406.578857421875	1005.605712890625	-421.2305297851562	2407.322265625	1021.092956542969	-123.8158721923828	2453.562744140625	953.4400634765624	-404.3160400390625	1935.526245117188	267.6067810058594	-321.9833374023438	2465.586669921875	972.7948608398438	-151.24072265625	2306.527587890625	902.3631591796876	-415.0157165527344	2345.402587890625	920.7676391601562	-98.82252502441406	2312.32666015625	1052.463989257812	-281.4128112792969	2339.412841796875	647.5875244140625	-418.7807006835938	2047.446044921875	383.3239135742188	-399.3513488769531	2261.517822265625	678.5172119140625	-423.7883605957031	2300.33203125	553.845703125	-396.9123229980469	2531.05029296875	176.6698150634766	-108.8907012939453	2109.48681640625	460.72998046875	-412.1242370605469	2222.57763671875	588.734375	-396.7693786621094	2609.976806640625	750.3944702148438	-105.2872772216797	2028.480834960938	46.61011123657227	-303.7938232421875	2544.603271484375	709.5903930664062	-93.09711456298828	2661.50390625	663.2404174804688	-118.3555526733398	2590.820068359375	623.8029174804688	-110.4620819091797	2235.054931640625	530.2667846679688	-398.5330505371094	2627.09619140625	604.4007568359375	-110.8433990478516	2171.298583984375	410.5079956054688	-405.9542541503906	2108.264892578125	332.5844421386719	-398.906005859375	2614.083984375	483.2333068847656	-109.6440734863281	1982.560791015625	69.5462417602539	-369.2813720703125	2545.79736328125	526.497314453125	-103.6167678833008	1920.1494140625	251.9164276123047	-287.5908203125	2559.244384765625	398.2500610351562	-122.2924346923828	2493.361083984375	443.5025939941406	-117.7194366455078	1970.33740234375	212.8861541748047	-372.807373046875	2429.800048828125	261.7411804199219	-150.6365814208984	2596.32568359375	176.0703735351562	-164.6184234619141	2372.35498046875	265.2243041992188	-212.6494598388672	2381.780517578125	233.5887908935547	-242.1266021728516	2360.85791015625	240.1417999267578	-188.5451507568359	1907.3486328125	249.5562896728516	-342.0059509277344
